<svg width="180" height="180" viewBox="0 0 180 180" fill="none" xmlns="http://www.w3.org/2000/svg">
<rect width="180" height="180" fill="#2A2122"/>
<path d="M45.3231 106H52.6524V93.4998C52.6524 90.757 54.6009 88.9134 57.2238 88.9134C58.0931 88.9134 59.3971 89.0633 60.1016 89.3031V82.9331C59.487 82.7682 58.7226 82.6633 58.0482 82.6633C55.5301 82.6633 53.5217 84.1322 52.6824 87.1748H52.4426V82.9781H45.3231V106ZM68.7337 106.39C71.9412 106.39 74.1595 105.146 75.4185 102.793H75.5984V106H82.4929V90.3523C82.4929 85.4811 78.1613 82.6783 72.3009 82.6783C66.1108 82.6783 62.6035 85.7958 62.019 89.9926L68.7787 90.2324C69.0935 88.7635 70.3075 87.8642 72.241 87.8642C74.0396 87.8642 75.1787 88.7335 75.1787 90.2773V90.3523C75.1787 91.7612 73.6499 92.0609 69.723 92.4057C65.0616 92.7954 61.1647 94.519 61.1647 99.615C61.1647 104.171 64.3272 106.39 68.7337 106.39ZM70.997 101.593C69.3033 101.593 68.1042 100.784 68.1042 99.2553C68.1042 97.7715 69.2733 96.8722 71.3567 96.5574C72.7206 96.3626 74.3993 96.0628 75.2236 95.6281V97.8164C75.2236 100.065 73.3351 101.593 70.997 101.593ZM98.0699 82.9781H93.9182V77.4624H86.5889V82.9781H83.5463V88.3738H86.5889V99.57C86.544 104.231 89.5716 106.57 94.7425 106.33C96.5112 106.24 97.7852 105.88 98.4896 105.67L97.3805 100.379C97.0657 100.454 96.3313 100.604 95.7767 100.604C94.5927 100.604 93.9182 100.125 93.9182 98.7607V88.3738H98.0699V82.9781ZM100.543 106H107.873V82.9781H100.543V106ZM104.215 80.2952C106.299 80.2952 107.977 78.7214 107.977 76.7879C107.977 74.8544 106.299 73.2957 104.215 73.2957C102.147 73.2957 100.453 74.8544 100.453 76.7879C100.453 78.7214 102.147 80.2952 104.215 80.2952ZM122.018 106.435C129.257 106.435 133.649 101.653 133.649 94.564C133.649 87.4595 129.257 82.6783 122.018 82.6783C114.779 82.6783 110.387 87.4595 110.387 94.564C110.387 101.653 114.779 106.435 122.018 106.435ZM122.063 100.904C119.35 100.904 117.851 98.326 117.851 94.519C117.851 90.697 119.35 88.104 122.063 88.104C124.686 88.104 126.185 90.697 126.185 94.519C126.185 98.326 124.686 100.904 122.063 100.904Z" fill="#D1A7AC"/>
</svg>
