<svg width="51" height="20" viewBox="0 0 51 20" fill="none" xmlns="http://www.w3.org/2000/svg">
<path d="M0.321023 19H4.48864V11.892C4.48864 10.3324 5.59659 9.28409 7.08807 9.28409C7.58239 9.28409 8.32386 9.36932 8.72443 9.50568V5.88352C8.375 5.78977 7.94034 5.73011 7.55682 5.73011C6.125 5.73011 4.98295 6.56534 4.50568 8.29545H4.36932V5.90909H0.321023V19ZM13.6329 19.2216C15.4568 19.2216 16.7182 18.5142 17.4341 17.1761H17.5363V19H21.4568V10.1023C21.4568 7.33239 18.9937 5.73864 15.6613 5.73864C12.1414 5.73864 10.1471 7.51136 9.81474 9.89773L13.6585 10.0341C13.8375 9.19886 14.5278 8.6875 15.6272 8.6875C16.65 8.6875 17.2977 9.18182 17.2977 10.0597V10.1023C17.2977 10.9034 16.4284 11.0739 14.1954 11.2699C11.5449 11.4915 9.32895 12.4716 9.32895 15.3693C9.32895 17.9602 11.1272 19.2216 13.6329 19.2216ZM14.9199 16.4943C13.9568 16.4943 13.275 16.0341 13.275 15.1648C13.275 14.321 13.9397 13.8097 15.1244 13.6307C15.9 13.5199 16.8545 13.3494 17.3233 13.1023V14.3466C17.3233 15.625 16.2494 16.4943 14.9199 16.4943ZM30.3143 5.90909H27.9535V2.77273H23.7859V5.90909H22.0558V8.97727H23.7859V15.3438C23.7603 17.9943 25.4819 19.3239 28.4222 19.1875C29.4279 19.1364 30.1524 18.9318 30.5529 18.8125L29.9222 15.804C29.7433 15.8466 29.3257 15.9318 29.0103 15.9318C28.337 15.9318 27.9535 15.6591 27.9535 14.8835V8.97727H30.3143V5.90909ZM31.7207 19H35.8883V5.90909H31.7207V19ZM33.8088 4.38352C34.9934 4.38352 35.948 3.48864 35.948 2.3892C35.948 1.28977 34.9934 0.403408 33.8088 0.403408C32.6326 0.403408 31.6696 1.28977 31.6696 2.3892C31.6696 3.48864 32.6326 4.38352 33.8088 4.38352ZM43.9318 19.2472C48.0483 19.2472 50.5455 16.5284 50.5455 12.4972C50.5455 8.45739 48.0483 5.73864 43.9318 5.73864C39.8153 5.73864 37.3182 8.45739 37.3182 12.4972C37.3182 16.5284 39.8153 19.2472 43.9318 19.2472ZM43.9574 16.1023C42.4148 16.1023 41.5625 14.6364 41.5625 12.4716C41.5625 10.2983 42.4148 8.82386 43.9574 8.82386C45.4489 8.82386 46.3011 10.2983 46.3011 12.4716C46.3011 14.6364 45.4489 16.1023 43.9574 16.1023Z" fill="black"/>
</svg>
